<?xml version="1.0" encoding="iso-8859-1"?>
<!-- Generator: Adobe Illustrator 16.0.0, SVG Export Plug-In . SVG Version: 6.00 Build 0)  -->
<!DOCTYPE svg PUBLIC "-//W3C//DTD SVG 1.1//EN" "http://www.w3.org/Graphics/SVG/1.1/DTD/svg11.dtd">
<svg version="1.1" id="Capa_1" xmlns="http://www.w3.org/2000/svg" xmlns:xlink="http://www.w3.org/1999/xlink" x="0px" y="0px"
	 width="40px" height="40px" viewBox="0 0 536.461 536.46" style="fill:#0071C3; enable-background:new 0 0 536.461 536.46;"
	 xml:space="preserve">
<g>
	<g>
	<path d="M456.239,128.475c-12.56-12.562-27.597-18.842-45.11-18.842h-191.86v-9.136c0-17.511-6.283-32.548-18.843-45.107
		c-12.562-12.562-27.6-18.846-45.111-18.846H63.953c-17.515,0-32.551,6.283-45.111,18.846C6.28,67.949,0,82.986,0,100.497v274.088
		c0,17.508,6.28,32.545,18.842,45.104c12.562,12.565,27.6,18.849,45.111,18.849h347.175c17.514,0,32.551-6.283,45.11-18.849
		c12.566-12.56,18.843-27.597,18.843-45.104V173.59C475.082,156.078,468.805,141.042,456.239,128.475z M438.536,374.585
		c0,7.611-2.662,14.093-7.99,19.417c-5.328,5.325"/>
	</g>
</g>
<g>
</g>
<g>
</g>
<g>
</g>
<g>
</g>
<g>
</g>
<g>
</g>
<g>
</g>
<g>
</g>
<g>
</g>
<g>
</g>
<g>
</g>
<g>
</g>
<g>
</g>
<g>
</g>
<g>
</g>
</svg>
